<mxfile host="app.diagrams.net" modified="2024-01-18T19:25:46.167Z" agent="Mozilla/5.0 (Windows NT 10.0; Win64; x64) AppleWebKit/537.36 (KHTML, like Gecko) Chrome/120.0.0.0 Safari/537.36 Edg/120.0.0.0" version="22.1.20" etag="IWWri1ilCJlukkd9XcqR" type="github">
  <diagram name="Page-1" id="S39egEUGjMzdqcErgkC7">
    <mxGraphModel>
      <root>
        <mxCell id="0" />
        <mxCell id="1" parent="0" />
      </root>
    </mxGraphModel>
  </diagram>
</mxfile>
